<?xml version="1.0" encoding="UTF-8" standalone="no"?>
<!-- Generator: Adobe Illustrator 12.0.0, SVG Export Plug-In . SVG Version: 6.00 Build 51448)  -->

<svg
   xmlns:dc="http://purl.org/dc/elements/1.1/"
   xmlns:cc="http://creativecommons.org/ns#"
   xmlns:rdf="http://www.w3.org/1999/02/22-rdf-syntax-ns#"
   xmlns:svg="http://www.w3.org/2000/svg"
   xmlns="http://www.w3.org/2000/svg"
   xmlns:sodipodi="http://sodipodi.sourceforge.net/DTD/sodipodi-0.dtd"
   xmlns:inkscape="http://www.inkscape.org/namespaces/inkscape"
   version="1.1"
   width="560.525"
   height="566.429"
   viewBox="0 0 560.525 566.429"
   overflow="visible"
   enable-background="new 0 0 560.525 566.429"
   xml:space="preserve"
   id="svg2"
   sodipodi:version="0.32"
   inkscape:version="0.48.3.1 r9886"
   sodipodi:docname="logo.svg"
   inkscape:export-filename="/home/daniel/Entwicklung/Web/foto-schaal.de/logo.png"
   inkscape:export-xdpi="19.27"
   inkscape:export-ydpi="19.27"
   inkscape:output_extension="org.inkscape.output.svg.inkscape"><metadata
   id="metadata25"><rdf:RDF><cc:Work
       rdf:about=""><dc:format>image/svg+xml</dc:format><dc:type
         rdf:resource="http://purl.org/dc/dcmitype/StillImage" /><dc:title></dc:title></cc:Work></rdf:RDF></metadata><defs
   id="defs23">
	

		
		
			
		
			
		
		
		
	</defs><sodipodi:namedview
   inkscape:window-height="1008"
   inkscape:window-width="1920"
   inkscape:pageshadow="2"
   inkscape:pageopacity="0"
   borderopacity="1.0"
   bordercolor="#666666"
   pagecolor="#ffffff"
   id="base"
   inkscape:zoom="1.4604771"
   inkscape:cx="280.51562"
   inkscape:cy="282.96051"
   inkscape:window-x="-2"
   inkscape:window-y="-3"
   inkscape:current-layer="g1380"
   showgrid="false"
   inkscape:window-maximized="1" />
<g
   id="Ebene_1">
</g>
<g
   id="Desktop">
</g>
<g
   id="Hilfslinien">
</g>
<g
   id="Gitter"
   display="none">
</g>

<g
   inkscape:groupmode="layer"
   id="layer1"
   inkscape:label="logo"><g
     id="g1380"
     inkscape:export-filename="/home/daniel/www/cms/joomla_trunk_svn/templates/fotoschaal_rhuk/images/mw_joomla_logo.png"
     inkscape:export-xdpi="90"
     inkscape:export-ydpi="90"><path
       id="path12"
       d="M 484.21875,271.625 C 446.77861,403.26953 324.7772,496.3125 187.09375,496.3125 C 154.54421,496.3125 119.41232,490.25593 89.21875,480.59375 L 87.03125,487.34375 C 117.92368,497.22957 153.66928,503.40625 187.09375,503.40625 C 327.9683,503.40625 452.72341,408.25797 491.03125,273.5625 L 484.21875,271.625 z "
       style="fill:#000000;fill-opacity:1;fill-rule:evenodd;stroke:none;stroke-width:1.99999993999999992;stroke-miterlimit:2.94280004999999978;stroke-opacity:1;stroke-dasharray:none" /><path
       id="path14"
       d="M 553.53125,252 C 523.08815,428.85513 367.98425,559.34375 188.21875,559.34375 C 172.33457,559.34376 150.39463,557.88986 135.875,556.4375 L 135.1875,563.46875 C 149.93987,564.94439 171.90493,566.43751 188.21875,566.4375 C 371.41325,566.4375 529.50431,433.46562 560.53125,253.21875 L 553.53125,252 z "
       style="fill:#000000;fill-opacity:1;fill-rule:evenodd;stroke:none;stroke-width:1.99999993999999992;stroke-miterlimit:2.94280004999999978;stroke-opacity:1;stroke-dasharray:none" /><path
       style="fill:#5ba391;fill-rule:evenodd"
       id="path16"
       d="M 171.74,404.208 C 164.425,398.372 155.881,394.315 147.375,392.662 C 130.97,389.474 117.641,398.358 114.476,414.641 C 113.106,421.69 114.156,427.316 117.481,431.62 C 120.023,434.762 123.24,437.026 131.956,441.495 C 141.232,446.325 143.625,448.933 142.775,453.308 C 141.854,458.047 137.23,460.427 131.032,459.223 C 124.835,458.018 119.4,454.188 114.046,447.346 L 101.747,462.611 C 109.096,470.218 118.321,475.311 128.164,477.224 C 135.82,478.712 143.368,478.162 149.379,475.779 C 158.125,472.308 163.212,465.604 165.384,454.425 C 167.652,442.759 163.118,434.942 149.825,428.071 L 145.369,425.691 C 142.496,424.25 142.155,424.057 141.277,423.382 C 137.963,420.972 136.541,418.552 137.037,416 C 137.793,412.111 142.393,409.854 147.376,410.821 C 152.237,411.766 156.159,414.294 160.166,418.982 L 171.74,404.208 L 171.74,404.208 z M 224.724,423.541 C 220.09,421.71 216.315,421.17 211.382,421.602 C 193.254,423.188 181.17,437.044 182.691,454.433 C 183.284,461.216 185.786,467.086 190.165,471.673 C 196.586,478.319 206.349,481.959 215.722,481.139 C 220.778,480.698 224.526,479.499 229.386,476.817 L 227.919,460.045 C 224.928,462.792 221.83,464.306 218.253,464.619 C 209.99,465.342 203.956,460.278 203.243,452.139 C 202.574,444.493 207.874,438.313 215.643,437.633 C 219.219,437.32 222.142,438.059 226.191,440.314 L 224.724,423.541 L 224.724,423.541 z M 229.822,386.892 L 259.364,472.689 L 278.092,466.241 L 268.299,437.798 C 267.09,434.287 266.989,432.096 267.749,429.739 C 268.856,426.87 271.339,424.575 274.383,423.527 C 277.659,422.398 281.267,422.989 283.284,425.045 C 285.022,426.672 285.502,427.685 287.356,433.068 L 296.585,459.873 L 315.313,453.425 L 303.706,419.715 C 301.207,412.458 298.787,409.233 293.752,406.777 C 288.677,404.204 282.958,403.947 276.638,406.124 C 268.796,408.824 265.15,412.305 262.132,419.891 L 248.549,380.446 L 229.822,386.892 L 229.822,386.892 z M 339.98,368.75 L 343.408,372.983 C 336.366,372.154 330.827,373.773 325.247,378.292 C 312.837,388.342 311.415,406.06 322.088,419.239 C 332.683,432.323 350.574,434.747 362.985,424.697 C 368.853,419.944 371.515,414.577 371.377,407.52 L 375.273,412.331 L 390.666,399.866 L 355.375,356.285 L 339.98,368.75 L 339.98,368.75 z M 340.135,388.218 C 345.619,383.778 353.628,384.619 358.147,390.199 C 362.587,395.682 361.746,403.691 356.262,408.132 C 350.778,412.573 342.595,411.713 338.155,406.23 C 333.713,400.746 334.556,392.737 340.135,388.218 L 340.135,388.218 z M 390.26,312.447 L 394.722,315.571 C 387.725,316.716 382.846,319.799 378.728,325.68 C 369.569,338.761 373.084,356.184 386.977,365.912 C 400.768,375.568 418.635,372.966 427.794,359.885 C 432.125,353.699 433.205,347.806 431.127,341.061 L 436.197,344.612 L 447.557,328.386 L 401.62,296.221 L 390.26,312.447 L 390.26,312.447 z M 395.774,331.118 C 399.822,325.338 407.753,323.939 413.634,328.057 C 419.413,332.105 420.812,340.036 416.765,345.816 C 412.717,351.596 404.615,353.025 398.834,348.977 C 393.055,344.93 391.656,337 395.774,331.118 L 395.774,331.118 z M 380.645,248.256 L 374.524,267.093 L 460.824,295.134 L 466.944,276.297 L 380.645,248.256 L 380.645,248.256 z "
       clip-rule="evenodd" /><path
       style="fill-rule:evenodd;fill:#000000;fill-opacity:1;stroke:none;stroke-opacity:1;stroke-width:1.99999993999999992;stroke-miterlimit:2.94280004999999978;stroke-dasharray:none"
       id="path18"
       d="M 167.76,519.04 L 168.434,511.333 L 148.407,509.581 L 145.347,544.551 L 154.417,545.344 L 155.619,531.608 L 165.58,532.48 L 166.254,524.773 L 156.293,523.902 L 156.802,518.083 L 167.76,519.04 L 167.76,519.04 z M 212.164,520.797 C 203.933,521.517 198.314,527.345 198.948,534.579 C 199.622,542.286 205.906,547.081 214.399,546.338 C 222.735,545.609 228.196,539.786 227.54,532.289 C 226.887,524.845 220.5,520.068 212.164,520.797 L 212.164,520.797 z M 212.796,528.033 C 215.785,527.771 218.407,529.971 218.673,533.012 C 218.934,536 216.738,538.675 213.75,538.937 C 210.709,539.204 208.082,536.951 207.82,533.962 C 207.555,530.921 209.756,528.298 212.796,528.033 L 212.796,528.033 z M 269.174,519.646 L 273.82,518.488 L 272.127,511.697 L 267.481,512.855 L 265.749,505.91 L 257.579,507.947 L 259.31,514.892 L 256.603,515.567 L 258.296,522.358 L 261.003,521.683 L 265.077,538.024 L 273.247,535.987 L 269.174,519.646 L 269.174,519.646 z M 314.866,496.764 C 307.205,499.859 303.536,507.075 306.257,513.808 C 309.154,520.982 316.566,523.729 324.471,520.536 C 332.229,517.401 335.748,510.237 332.93,503.26 C 330.13,496.33 322.625,493.629 314.866,496.764 L 314.866,496.764 z M 317.587,503.498 C 320.368,502.375 323.52,503.713 324.663,506.543 C 325.787,509.323 324.469,512.524 321.687,513.648 C 318.857,514.791 315.685,513.404 314.562,510.623 C 313.419,507.792 314.757,504.641 317.587,503.498 L 317.587,503.498 z M 378.11,462.868 L 371.048,467.454 L 372.395,469.528 C 369.486,468.719 367.277,469.087 364.717,470.75 C 358.935,474.505 357.604,482.021 361.616,488.2 C 365.457,494.114 372.245,495.678 377.938,491.98 C 380.586,490.26 381.741,488.559 382.598,485.241 L 383.802,487.095 C 385.756,490.104 385.209,493.032 382.341,494.895 C 380.575,496.041 379.042,496.096 377.668,495.043 L 369.723,500.202 C 371.15,501.723 372.368,502.438 374.58,502.946 C 378.407,503.912 382.037,503.124 386.098,500.486 C 389.894,498.021 392.163,495.042 392.877,491.504 C 393.605,488.082 392.961,485.738 390.205,481.494 L 378.11,462.868 L 378.11,462.868 z M 370.353,475.561 C 372.869,473.927 376.217,474.639 377.851,477.155 C 379.485,479.671 378.774,483.02 376.257,484.654 C 373.741,486.288 370.393,485.576 368.759,483.06 C 367.125,480.543 367.837,477.195 370.353,475.561 L 370.353,475.561 z M 405.593,441.713 L 421.234,459.706 L 427.589,454.182 L 420.891,446.477 C 417.991,443.14 417.975,440.155 420.954,437.566 C 422.026,436.633 422.725,436.234 424.207,435.853 L 418.925,429.776 C 418.255,430.289 418.096,430.427 417.659,430.807 C 414.918,433.189 414.004,435.587 414.503,439.128 L 411.948,436.189 L 405.593,441.713 L 405.593,441.713 z M 451.44,393.252 L 453.265,394.678 C 450.268,395.008 448.128,396.208 446.249,398.614 C 442.069,403.964 443.175,411.439 448.855,415.878 C 454.496,420.285 462.138,419.578 466.318,414.228 C 468.295,411.699 468.883,409.22 468.152,406.311 L 470.225,407.93 L 475.41,401.295 L 456.624,386.617 L 451.44,393.252 L 451.44,393.252 z M 453.366,401.301 C 455.213,398.938 458.611,398.521 461.016,400.4 C 463.38,402.247 463.796,405.645 461.95,408.008 C 460.103,410.372 456.632,410.799 454.267,408.951 C 451.904,407.105 451.486,403.708 453.366,401.301 L 453.366,401.301 z M 486.025,354.534 L 488.908,349.333 L 482.787,345.939 L 479.903,351.14 L 477.28,349.686 C 475.577,348.742 474.912,348.313 474.533,347.802 C 473.929,347.046 473.918,345.656 474.453,344.69 C 474.887,343.907 475.403,343.411 476.618,342.52 L 470.221,338.973 C 468.908,339.931 468.316,340.565 467.626,341.808 C 466.224,344.339 465.93,347.366 466.797,350.253 C 467.663,353.14 469.147,354.805 472.646,356.744 L 475.822,358.505 L 474.368,361.128 L 480.489,364.522 L 481.944,361.898 L 496.673,370.063 L 500.755,362.699 L 486.025,354.534 L 486.025,354.534 z M 499.655,309.879 L 496.637,317.74 L 518.894,326.284 L 521.912,318.423 L 499.655,309.879 L 499.655,309.879 z M 485.176,308.832 C 484.233,311.288 485.444,314.008 487.9,314.951 C 490.357,315.893 493.077,314.682 494.019,312.226 C 494.962,309.769 493.751,307.049 491.295,306.107 C 488.838,305.164 486.118,306.375 485.176,308.832 L 485.176,308.832 z M 529.851,256.067 L 528.775,255.818 C 520.929,254.006 514.932,257.754 513.133,265.548 C 511.298,273.496 514.97,279.583 522.662,281.359 C 530.148,283.087 536.196,278.921 538.091,270.716 C 539.002,266.767 538.41,262.741 536.423,260.122 C 535.52,258.887 534.612,258.138 532.794,257.124 L 530.971,265.02 C 532.324,266.413 532.702,267.581 532.264,269.478 C 531.483,272.863 529.411,274.113 525.862,273.347 L 529.851,256.067 L 529.851,256.067 z M 521.14,272.042 C 518.836,271.024 517.882,269.075 518.497,266.409 C 519.03,264.101 520.88,262.638 523.318,262.607 L 521.14,272.042 L 521.14,272.042 z "
       clip-rule="evenodd" /><g
       id="g3099"><g
         id="g3087"
         transform="translate(418.0064,-28.98053)"><path
           transform="matrix(2.546981,0,0,2.546981,311.0504,-777.2257)"
           d="m -139.33548,389.98788 c 0,40.56754 -32.88649,73.45403 -73.45403,73.45403 -40.56753,0 -73.45402,-32.88649 -73.45402,-73.45403 0,-40.56753 32.88649,-73.45402 73.45402,-73.45402 40.56754,0 73.45403,32.88649 73.45403,73.45402 z"
           sodipodi:ry="73.454025"
           sodipodi:rx="73.454025"
           sodipodi:cy="389.98788"
           sodipodi:cx="-212.78951"
           id="path2204"
           style="opacity:1;color:#000000;fill:#5ba391;fill-opacity:1;fill-rule:nonzero;stroke:none;stroke-width:1.02199996;stroke-linecap:butt;stroke-linejoin:miter;marker:none;marker-start:none;marker-mid:none;marker-end:none;stroke-miterlimit:4;stroke-dasharray:none;stroke-dashoffset:0;stroke-opacity:1;visibility:visible;display:inline;overflow:visible"
           sodipodi:type="arc" /><path
           transform="matrix(1.311725,0,0,1.216169,118.7262,180.1488)"
           d="m -160.53872,29.533064 c 0,63.151531 -47.46503,114.345966 -106.01612,114.345966 -58.55109,0 -106.01612,-51.194435 -106.01612,-114.345966 0,-63.151531 47.46503,-114.345963 106.01612,-114.345963 58.55109,0 106.01612,51.194432 106.01612,114.345963 z"
           sodipodi:ry="114.34596"
           sodipodi:rx="106.01612"
           sodipodi:cy="29.533064"
           sodipodi:cx="-266.55484"
           id="path1329"
           style="opacity:1;color:#000000;fill:#000000;fill-opacity:1;fill-rule:nonzero;stroke:none;stroke-width:1.02199996;stroke-linecap:butt;stroke-linejoin:miter;marker:none;marker-start:none;marker-mid:none;marker-end:none;stroke-miterlimit:4;stroke-dasharray:none;stroke-dashoffset:0;stroke-opacity:1;visibility:visible;display:inline;overflow:visible"
           sodipodi:type="arc" /></g><g
         id="g3091"><path
           transform="matrix(1.024941,-9.330588e-3,9.330588e-3,1.024941,-7.395228,-0.145863)"
           d="M 259.68774,180.02273 L 231.10203,176.18101 L 225.92226,147.80722 L 251.30669,134.11299 L 272.17491,154.02327 L 259.68774,180.02273 z "
           inkscape:randomized="0"
           inkscape:rounded="0"
           inkscape:flatsided="true"
           sodipodi:arg2="1.7043892"
           sodipodi:arg1="1.0760706"
           sodipodi:r2="19.849289"
           sodipodi:r1="24.53507"
           sodipodi:cy="158.42944"
           sodipodi:cx="248.03873"
           sodipodi:sides="5"
           id="path2210"
           style="opacity:1;color:#000000;fill:#5ba391;fill-opacity:1;fill-rule:nonzero;stroke:none;stroke-width:1.02199996;stroke-linecap:butt;stroke-linejoin:miter;marker:none;marker-start:none;marker-mid:none;marker-end:none;stroke-miterlimit:4;stroke-dasharray:none;stroke-dashoffset:0;stroke-opacity:1;visibility:visible;display:inline;overflow:visible"
           sodipodi:type="star" /><path
           transform="matrix(0.999588,-2.869211e-2,2.869211e-2,0.999588,-6.190301,9.867076)"
           d="M 251.7323,158.14533 L 284.99791,140.20313 L 312.3416,166.29616 L 295.97532,200.36474 L 258.51671,195.32725 L 251.7323,158.14533 z "
           inkscape:randomized="0"
           inkscape:rounded="0"
           inkscape:flatsided="true"
           sodipodi:arg2="-2.0654355"
           sodipodi:arg1="-2.693754"
           sodipodi:r2="26.010738"
           sodipodi:r1="32.151039"
           sodipodi:cy="172.06732"
           sodipodi:cx="280.71277"
           sodipodi:sides="5"
           id="path2212"
           style="opacity:1;color:#000000;fill:#ffffff;fill-opacity:1;fill-rule:nonzero;stroke:none;stroke-width:1.02199996;stroke-linecap:butt;stroke-linejoin:miter;marker:none;marker-start:none;marker-mid:none;marker-end:none;stroke-miterlimit:4;stroke-dasharray:none;stroke-dashoffset:0;stroke-opacity:1;visibility:visible;display:inline;overflow:visible"
           sodipodi:type="star" /></g></g></g></g></svg>